<?xml version="1.0" encoding="utf-8"?>
<!-- Generator: Adobe Illustrator 22.0.0, SVG Export Plug-In . SVG Version: 6.00 Build 0)  -->
<svg version="1.1" id="Layer_1" xmlns="http://www.w3.org/2000/svg" xmlns:xlink="http://www.w3.org/1999/xlink" x="0px" y="0px"
	 viewBox="0 0 18 18" style="enable-background:new 0 0 18 18;" xml:space="preserve">
<style type="text/css">
	.st0{display:none;}
	.st1{display:inline;opacity:0.5;}
	.st2{fill:#6FCBDC;}
	.st3{display:inline;}
	.st4{opacity:0.5;fill:none;stroke:#A8A7A8;stroke-width:0.05;stroke-miterlimit:10;enable-background:new    ;}
	.st5{fill:none;stroke:#A8A7A8;stroke-width:0.05;stroke-miterlimit:10;}
	.st6{display:inline;opacity:0.5;fill:none;stroke:#6FCBDC;stroke-width:0.2;stroke-miterlimit:10;enable-background:new    ;}
	.st7{fill:#4C6A8D;}
</style>
<g id="Grid" class="st0">
	<g class="st1">
		<path class="st2" d="M40.145-23.793L40.145-23.793v19.6h-19.6v-19.6H40.145 M40.345-23.993h-20v20h20v-19.7V-23.993L40.345-23.993
			z"/>
	</g>
	<g class="st3">
		<line class="st4" x1="19.345" y1="-25.993" x2="19.345" y2="-1.993"/>
		<line class="st4" x1="20.345" y1="-25.993" x2="20.345" y2="-1.993"/>
		<line class="st4" x1="21.345" y1="-25.993" x2="21.345" y2="-1.993"/>
		<line class="st4" x1="22.345" y1="-25.993" x2="22.345" y2="-1.993"/>
		<line class="st4" x1="23.345" y1="-25.993" x2="23.345" y2="-1.993"/>
		<line class="st4" x1="24.345" y1="-25.993" x2="24.345" y2="-1.993"/>
		<line class="st4" x1="25.345" y1="-25.993" x2="25.345" y2="-1.993"/>
		<line class="st4" x1="26.345" y1="-25.993" x2="26.345" y2="-1.993"/>
		<line class="st4" x1="27.345" y1="-25.993" x2="27.345" y2="-1.993"/>
		<line class="st4" x1="28.345" y1="-25.993" x2="28.345" y2="-1.993"/>
		<line class="st4" x1="29.345" y1="-25.993" x2="29.345" y2="-1.993"/>
		<line class="st4" x1="30.345" y1="-25.993" x2="30.345" y2="-1.993"/>
		<line class="st4" x1="31.345" y1="-25.993" x2="31.345" y2="-1.993"/>
		<line class="st4" x1="32.345" y1="-25.993" x2="32.345" y2="-1.993"/>
		<line class="st4" x1="33.345" y1="-25.993" x2="33.345" y2="-1.993"/>
		<line class="st4" x1="34.345" y1="-25.993" x2="34.345" y2="-1.993"/>
		<line class="st4" x1="35.345" y1="-25.993" x2="35.345" y2="-1.993"/>
		<line class="st4" x1="36.345" y1="-25.993" x2="36.345" y2="-1.993"/>
		<line class="st4" x1="37.345" y1="-25.993" x2="37.345" y2="-1.993"/>
		<line class="st4" x1="38.345" y1="-25.993" x2="38.345" y2="-1.993"/>
		<line class="st4" x1="39.345" y1="-25.993" x2="39.345" y2="-1.993"/>
		<line class="st4" x1="40.345" y1="-25.993" x2="40.345" y2="-1.993"/>
		<line class="st4" x1="41.345" y1="-25.993" x2="41.345" y2="-1.993"/>
		<line class="st4" x1="42.345" y1="-24.993" x2="18.345" y2="-24.993"/>
		<line class="st4" x1="42.345" y1="-23.993" x2="18.345" y2="-23.993"/>
		<line class="st4" x1="42.345" y1="-22.993" x2="18.345" y2="-22.993"/>
		<line class="st4" x1="42.345" y1="-21.993" x2="18.345" y2="-21.993"/>
		<line class="st4" x1="42.345" y1="-20.993" x2="18.345" y2="-20.993"/>
		<line class="st4" x1="42.345" y1="-19.993" x2="18.345" y2="-19.993"/>
		<line class="st4" x1="42.345" y1="-18.993" x2="18.345" y2="-18.993"/>
		<line class="st4" x1="42.345" y1="-17.993" x2="18.345" y2="-17.993"/>
		<line class="st4" x1="42.345" y1="-16.993" x2="18.345" y2="-16.993"/>
		<line class="st4" x1="42.345" y1="-15.993" x2="18.345" y2="-15.993"/>
		<line class="st4" x1="42.345" y1="-14.993" x2="18.345" y2="-14.993"/>
		<line class="st4" x1="42.345" y1="-13.993" x2="18.345" y2="-13.993"/>
		<line class="st4" x1="42.345" y1="-12.993" x2="18.345" y2="-12.993"/>
		<line class="st4" x1="42.345" y1="-11.993" x2="18.345" y2="-11.993"/>
		<line class="st4" x1="42.345" y1="-10.993" x2="18.345" y2="-10.993"/>
		<line class="st4" x1="42.345" y1="-9.993" x2="18.345" y2="-9.993"/>
		<line class="st4" x1="42.345" y1="-8.993" x2="18.345" y2="-8.993"/>
		<line class="st4" x1="42.345" y1="-7.993" x2="18.345" y2="-7.993"/>
		<line class="st4" x1="42.345" y1="-6.993" x2="18.345" y2="-6.993"/>
		<line class="st4" x1="42.345" y1="-5.993" x2="18.345" y2="-5.993"/>
		<line class="st4" x1="42.345" y1="-4.993" x2="18.345" y2="-4.993"/>
		<line class="st4" x1="42.345" y1="-3.993" x2="18.345" y2="-3.993"/>
		<line class="st4" x1="42.345" y1="-2.993" x2="18.345" y2="-2.993"/>
		<rect x="18.345" y="-25.993" class="st5" width="24" height="24"/>
	</g>
	<line class="st6" x1="18.345" y1="-25.993" x2="42.345" y2="-1.993"/>
	<line class="st6" x1="42.345" y1="-25.993" x2="18.345" y2="-1.993"/>
	<line class="st6" x1="18.345" y1="-13.993" x2="42.345" y2="-13.993"/>
	<line class="st6" x1="18.345" y1="-19.993" x2="42.345" y2="-19.993"/>
	<line class="st6" x1="18.345" y1="-8.993" x2="42.345" y2="-8.993"/>
	<circle class="st6" cx="30.345" cy="-13.993" r="10"/>
	<line class="st6" x1="36.345" y1="-25.993" x2="36.345" y2="-1.993"/>
	<line class="st6" x1="24.345" y1="-25.993" x2="24.345" y2="-1.993"/>
	<line class="st6" x1="30.345" y1="-25.993" x2="30.345" y2="-1.993"/>
</g>
<g id="Delay">
</g>
<g id="App_integration">
</g>
<g id="Active_directory">
</g>
<g id="Record">
</g>
<g id="Clipboard">
</g>
<g id="Comment">
</g>
<g id="Database">
</g>
<g id="Wait">
</g>
<g id="Web_service_-_soap">
</g>
<g id="Web_service_-_rest">
</g>
<g id="Service">
</g>
<g id="Keyboard">
</g>
<g id="SNMP">
</g>
<g id="OCR">
</g>
<g id="Launch_site">
</g>
<g id="xml">
</g>
<g id="OCR_1_">
</g>
<g id="window">
</g>
<g id="OPERATIONS">
</g>
<g id="VARIABLES">
</g>
<g id="Javascript">
</g>
<g id="JAva">
</g>
<g id="VBS">
</g>
<g id="Python">
</g>
<g id="Terminal">
</g>
<g id="Sound">
</g>
<g id="Screen_cap">
</g>
<g id="Print">
</g>
<g id="Prompt">
</g>
<g id="Read">
</g>
<g id="SAP_1_">
</g>
<g id="PGP">
</g>
<g id="System">
</g>
<g id="PDF">
</g>
<g id="command">
</g>
<g id="Message_box">
</g>
<g id="FTP">
</g>
<g id="Folder">
</g>
<g id="File">
</g>
<g id="Excel">
</g>
<g id="device">
</g>
<g id="email">
</g>
<g id="Grid_1_" class="st0">
	<g class="st1">
		<path class="st2" d="M-13.26-23.793L-13.26-23.793v19.6h-19.6v-19.6H-13.26 M-13.06-23.993h-20v20h20v-19.7L-13.06-23.993
			L-13.06-23.993z"/>
	</g>
	<g class="st3">
		<line class="st4" x1="-34.06" y1="-25.993" x2="-34.06" y2="-1.993"/>
		<line class="st4" x1="-33.06" y1="-25.993" x2="-33.06" y2="-1.993"/>
		<line class="st4" x1="-32.06" y1="-25.993" x2="-32.06" y2="-1.993"/>
		<line class="st4" x1="-31.06" y1="-25.993" x2="-31.06" y2="-1.993"/>
		<line class="st4" x1="-30.06" y1="-25.993" x2="-30.06" y2="-1.993"/>
		<line class="st4" x1="-29.06" y1="-25.993" x2="-29.06" y2="-1.993"/>
		<line class="st4" x1="-28.06" y1="-25.993" x2="-28.06" y2="-1.993"/>
		<line class="st4" x1="-27.06" y1="-25.993" x2="-27.06" y2="-1.993"/>
		<line class="st4" x1="-26.06" y1="-25.993" x2="-26.06" y2="-1.993"/>
		<line class="st4" x1="-25.06" y1="-25.993" x2="-25.06" y2="-1.993"/>
		<line class="st4" x1="-24.06" y1="-25.993" x2="-24.06" y2="-1.993"/>
		<line class="st4" x1="-23.06" y1="-25.993" x2="-23.06" y2="-1.993"/>
		<line class="st4" x1="-22.06" y1="-25.993" x2="-22.06" y2="-1.993"/>
		<line class="st4" x1="-21.06" y1="-25.993" x2="-21.06" y2="-1.993"/>
		<line class="st4" x1="-20.06" y1="-25.993" x2="-20.06" y2="-1.993"/>
		<line class="st4" x1="-19.06" y1="-25.993" x2="-19.06" y2="-1.993"/>
		<line class="st4" x1="-18.06" y1="-25.993" x2="-18.06" y2="-1.993"/>
		<line class="st4" x1="-17.06" y1="-25.993" x2="-17.06" y2="-1.993"/>
		<line class="st4" x1="-16.06" y1="-25.993" x2="-16.06" y2="-1.993"/>
		<line class="st4" x1="-15.06" y1="-25.993" x2="-15.06" y2="-1.993"/>
		<line class="st4" x1="-14.06" y1="-25.993" x2="-14.06" y2="-1.993"/>
		<line class="st4" x1="-13.06" y1="-25.993" x2="-13.06" y2="-1.993"/>
		<line class="st4" x1="-12.06" y1="-25.993" x2="-12.06" y2="-1.993"/>
		<line class="st4" x1="-11.06" y1="-24.993" x2="-35.06" y2="-24.993"/>
		<line class="st4" x1="-11.06" y1="-23.993" x2="-35.06" y2="-23.993"/>
		<line class="st4" x1="-11.06" y1="-22.993" x2="-35.06" y2="-22.993"/>
		<line class="st4" x1="-11.06" y1="-21.993" x2="-35.06" y2="-21.993"/>
		<line class="st4" x1="-11.06" y1="-20.993" x2="-35.06" y2="-20.993"/>
		<line class="st4" x1="-11.06" y1="-19.993" x2="-35.06" y2="-19.993"/>
		<line class="st4" x1="-11.06" y1="-18.993" x2="-35.06" y2="-18.993"/>
		<line class="st4" x1="-11.06" y1="-17.993" x2="-35.06" y2="-17.993"/>
		<line class="st4" x1="-11.06" y1="-16.993" x2="-35.06" y2="-16.993"/>
		<line class="st4" x1="-11.06" y1="-15.993" x2="-35.06" y2="-15.993"/>
		<line class="st4" x1="-11.06" y1="-14.993" x2="-35.06" y2="-14.993"/>
		<line class="st4" x1="-11.06" y1="-13.993" x2="-35.06" y2="-13.993"/>
		<line class="st4" x1="-11.06" y1="-12.993" x2="-35.06" y2="-12.993"/>
		<line class="st4" x1="-11.06" y1="-11.993" x2="-35.06" y2="-11.993"/>
		<line class="st4" x1="-11.06" y1="-10.993" x2="-35.06" y2="-10.993"/>
		<line class="st4" x1="-11.06" y1="-9.993" x2="-35.06" y2="-9.993"/>
		<line class="st4" x1="-11.06" y1="-8.993" x2="-35.06" y2="-8.993"/>
		<line class="st4" x1="-11.06" y1="-7.993" x2="-35.06" y2="-7.993"/>
		<line class="st4" x1="-11.06" y1="-6.993" x2="-35.06" y2="-6.993"/>
		<line class="st4" x1="-11.06" y1="-5.993" x2="-35.06" y2="-5.993"/>
		<line class="st4" x1="-11.06" y1="-4.993" x2="-35.06" y2="-4.993"/>
		<line class="st4" x1="-11.06" y1="-3.993" x2="-35.06" y2="-3.993"/>
		<line class="st4" x1="-11.06" y1="-2.993" x2="-35.06" y2="-2.993"/>
		<rect x="-35.06" y="-25.993" class="st5" width="24" height="24"/>
	</g>
	<line class="st6" x1="-35.06" y1="-25.993" x2="-11.06" y2="-1.993"/>
	<line class="st6" x1="-11.06" y1="-25.993" x2="-35.06" y2="-1.993"/>
	<line class="st6" x1="-35.06" y1="-13.993" x2="-11.06" y2="-13.993"/>
	<line class="st6" x1="-35.06" y1="-19.993" x2="-11.06" y2="-19.993"/>
	<line class="st6" x1="-35.06" y1="-8.993" x2="-11.06" y2="-8.993"/>
	<circle class="st6" cx="-23.06" cy="-13.993" r="10"/>
	<line class="st6" x1="-17.06" y1="-25.993" x2="-17.06" y2="-1.993"/>
	<line class="st6" x1="-29.06" y1="-25.993" x2="-29.06" y2="-1.993"/>
	<line class="st6" x1="-23.06" y1="-25.993" x2="-23.06" y2="-1.993"/>
</g>
<g id="Delay_1_">
</g>
<g id="App_integration_1_">
</g>
<g id="Active_directory_1_">
</g>
<g id="Record_1_">
</g>
<g id="Clipboard_1_">
</g>
<g id="Comment_1_">
</g>
<g id="Database_1_">
</g>
<g id="Wait_1_">
</g>
<g id="Web_service_-_soap_1_">
</g>
<g id="Web_service_-_rest_1_">
</g>
<g id="Service_1_">
</g>
<g id="Keyboard_1_">
</g>
<g id="SNMP_1_">
</g>
<g id="OCR_3_">
</g>
<g id="Launch_site_1_">
</g>
<g id="xml_1_">
</g>
<g id="OCR_2_">
</g>
<g id="window_1_">
</g>
<g id="OPERATIONS_1_">
</g>
<g id="VARIABLES_1_">
</g>
<g id="Javascript_1_">
</g>
<g id="JAva_1_">
</g>
<g id="VBS_1_">
</g>
<g id="Python_1_">
</g>
<g id="Terminal_1_">
</g>
<g id="Sound_1_">
</g>
<g id="Screen_cap_1_">
</g>
<g id="Print_1_">
</g>
<g id="Prompt_1_">
</g>
<g id="Read_1_">
</g>
<g id="SAP_2_">
</g>
<g id="PGP_1_">
</g>
<g id="System_1_">
</g>
<g id="PDF_1_">
</g>
<g id="command_1_">
</g>
<g id="Message_box_1_">
</g>
<g id="FTP_1_">
</g>
<g id="Folder_1_">
</g>
<g id="File_1_">
</g>
<g id="Excel_1_">
</g>
<g id="device_1_">
</g>
<g id="email_1_">
</g>
<g id="Grid_2_" class="st0">
	<g class="st1">
		<path class="st2" d="M18.8-0.8L18.8-0.8v19.6H-0.8V-0.8H18.8 M19-1H-1v20h20V-0.7V-1L19-1z"/>
	</g>
	<g class="st3">
		<line class="st4" x1="-2" y1="-3" x2="-2" y2="21"/>
		<line class="st4" x1="-1" y1="-3" x2="-1" y2="21"/>
		<line class="st4" x1="0" y1="-3" x2="0" y2="21"/>
		<line class="st4" x1="1" y1="-3" x2="1" y2="21"/>
		<line class="st4" x1="2" y1="-3" x2="2" y2="21"/>
		<line class="st4" x1="3" y1="-3" x2="3" y2="21"/>
		<line class="st4" x1="4" y1="-3" x2="4" y2="21"/>
		<line class="st4" x1="5" y1="-3" x2="5" y2="21"/>
		<line class="st4" x1="6" y1="-3" x2="6" y2="21"/>
		<line class="st4" x1="7" y1="-3" x2="7" y2="21"/>
		<line class="st4" x1="8" y1="-3" x2="8" y2="21"/>
		<line class="st4" x1="9" y1="-3" x2="9" y2="21"/>
		<line class="st4" x1="10" y1="-3" x2="10" y2="21"/>
		<line class="st4" x1="11" y1="-3" x2="11" y2="21"/>
		<line class="st4" x1="12" y1="-3" x2="12" y2="21"/>
		<line class="st4" x1="13" y1="-3" x2="13" y2="21"/>
		<line class="st4" x1="14" y1="-3" x2="14" y2="21"/>
		<line class="st4" x1="15" y1="-3" x2="15" y2="21"/>
		<line class="st4" x1="16" y1="-3" x2="16" y2="21"/>
		<line class="st4" x1="17" y1="-3" x2="17" y2="21"/>
		<line class="st4" x1="18" y1="-3" x2="18" y2="21"/>
		<line class="st4" x1="19" y1="-3" x2="19" y2="21"/>
		<line class="st4" x1="20" y1="-3" x2="20" y2="21"/>
		<line class="st4" x1="21" y1="-2" x2="-3" y2="-2"/>
		<line class="st4" x1="21" y1="-1" x2="-3" y2="-1"/>
		<line class="st4" x1="21" y1="0" x2="-3" y2="0"/>
		<line class="st4" x1="21" y1="1" x2="-3" y2="1"/>
		<line class="st4" x1="21" y1="2" x2="-3" y2="2"/>
		<line class="st4" x1="21" y1="3" x2="-3" y2="3"/>
		<line class="st4" x1="21" y1="4" x2="-3" y2="4"/>
		<line class="st4" x1="21" y1="5" x2="-3" y2="5"/>
		<line class="st4" x1="21" y1="6" x2="-3" y2="6"/>
		<line class="st4" x1="21" y1="7" x2="-3" y2="7"/>
		<line class="st4" x1="21" y1="8" x2="-3" y2="8"/>
		<line class="st4" x1="21" y1="9" x2="-3" y2="9"/>
		<line class="st4" x1="21" y1="10" x2="-3" y2="10"/>
		<line class="st4" x1="21" y1="11" x2="-3" y2="11"/>
		<line class="st4" x1="21" y1="12" x2="-3" y2="12"/>
		<line class="st4" x1="21" y1="13" x2="-3" y2="13"/>
		<line class="st4" x1="21" y1="14" x2="-3" y2="14"/>
		<line class="st4" x1="21" y1="15" x2="-3" y2="15"/>
		<line class="st4" x1="21" y1="16" x2="-3" y2="16"/>
		<line class="st4" x1="21" y1="17" x2="-3" y2="17"/>
		<line class="st4" x1="21" y1="18" x2="-3" y2="18"/>
		<line class="st4" x1="21" y1="19" x2="-3" y2="19"/>
		<line class="st4" x1="21" y1="20" x2="-3" y2="20"/>
		<rect x="-3" y="-3" class="st5" width="24" height="24"/>
	</g>
	<line class="st6" x1="-3" y1="-3" x2="21" y2="21"/>
	<line class="st6" x1="21" y1="-3" x2="-3" y2="21"/>
	<line class="st6" x1="-3" y1="9" x2="21" y2="9"/>
	<line class="st6" x1="-3" y1="3" x2="21" y2="3"/>
	<line class="st6" x1="-3" y1="14" x2="21" y2="14"/>
	<circle class="st6" cx="9" cy="9" r="10"/>
	<line class="st6" x1="15" y1="-3" x2="15" y2="21"/>
	<line class="st6" x1="3" y1="-3" x2="3" y2="21"/>
	<line class="st6" x1="9" y1="-3" x2="9" y2="21"/>
</g>
<g>
	<path class="st7" d="M16.2,3.003h-2.201V2.001h-1.996v1.002H6.002V2.002H4.004v1.001H1.8c-0.5,0-0.8,0.3-0.8,0.8v11.389
		c0,0.5,0.3,0.8,0.8,0.8h14.4c0.5,0,0.8-0.3,0.8-0.8V3.803C17,3.303,16.7,3.003,16.2,3.003z M16,15H2V5h14V15z"/>
	<rect x="4" y="7.001" class="st7" width="2" height="2"/>
	<rect x="8" y="7.001" class="st7" width="2" height="2"/>
	<rect x="12" y="7.001" class="st7" width="2" height="2"/>
	<rect x="4" y="10.999" class="st7" width="2" height="2"/>
	<rect x="8" y="10.999" class="st7" width="2" height="2"/>
	<rect x="12" y="10.999" class="st7" width="2" height="2"/>
</g>
<g id="Grid_3_" class="st0">
	<g class="st1">
		<path class="st2" d="M18.8-23.793L18.8-23.793v19.6H-0.8v-19.6H18.8 M19-23.993H-1v20h20v-19.7V-23.993L19-23.993z"/>
	</g>
	<g class="st3">
		<line class="st4" x1="-2" y1="-25.993" x2="-2" y2="-1.993"/>
		<line class="st4" x1="-1" y1="-25.993" x2="-1" y2="-1.993"/>
		<line class="st4" x1="0" y1="-25.993" x2="0" y2="-1.993"/>
		<line class="st4" x1="1" y1="-25.993" x2="1" y2="-1.993"/>
		<line class="st4" x1="2" y1="-25.993" x2="2" y2="-1.993"/>
		<line class="st4" x1="3" y1="-25.993" x2="3" y2="-1.993"/>
		<line class="st4" x1="4" y1="-25.993" x2="4" y2="-1.993"/>
		<line class="st4" x1="5" y1="-25.993" x2="5" y2="-1.993"/>
		<line class="st4" x1="6" y1="-25.993" x2="6" y2="-1.993"/>
		<line class="st4" x1="7" y1="-25.993" x2="7" y2="-1.993"/>
		<line class="st4" x1="8" y1="-25.993" x2="8" y2="-1.993"/>
		<line class="st4" x1="9" y1="-25.993" x2="9" y2="-1.993"/>
		<line class="st4" x1="10" y1="-25.993" x2="10" y2="-1.993"/>
		<line class="st4" x1="11" y1="-25.993" x2="11" y2="-1.993"/>
		<line class="st4" x1="12" y1="-25.993" x2="12" y2="-1.993"/>
		<line class="st4" x1="13" y1="-25.993" x2="13" y2="-1.993"/>
		<line class="st4" x1="14" y1="-25.993" x2="14" y2="-1.993"/>
		<line class="st4" x1="15" y1="-25.993" x2="15" y2="-1.993"/>
		<line class="st4" x1="16" y1="-25.993" x2="16" y2="-1.993"/>
		<line class="st4" x1="17" y1="-25.993" x2="17" y2="-1.993"/>
		<line class="st4" x1="18" y1="-25.993" x2="18" y2="-1.993"/>
		<line class="st4" x1="19" y1="-25.993" x2="19" y2="-1.993"/>
		<line class="st4" x1="20" y1="-25.993" x2="20" y2="-1.993"/>
		<line class="st4" x1="21" y1="-24.993" x2="-3" y2="-24.993"/>
		<line class="st4" x1="21" y1="-23.993" x2="-3" y2="-23.993"/>
		<line class="st4" x1="21" y1="-22.993" x2="-3" y2="-22.993"/>
		<line class="st4" x1="21" y1="-21.993" x2="-3" y2="-21.993"/>
		<line class="st4" x1="21" y1="-20.993" x2="-3" y2="-20.993"/>
		<line class="st4" x1="21" y1="-19.993" x2="-3" y2="-19.993"/>
		<line class="st4" x1="21" y1="-18.993" x2="-3" y2="-18.993"/>
		<line class="st4" x1="21" y1="-17.993" x2="-3" y2="-17.993"/>
		<line class="st4" x1="21" y1="-16.993" x2="-3" y2="-16.993"/>
		<line class="st4" x1="21" y1="-15.993" x2="-3" y2="-15.993"/>
		<line class="st4" x1="21" y1="-14.993" x2="-3" y2="-14.993"/>
		<line class="st4" x1="21" y1="-13.993" x2="-3" y2="-13.993"/>
		<line class="st4" x1="21" y1="-12.993" x2="-3" y2="-12.993"/>
		<line class="st4" x1="21" y1="-11.993" x2="-3" y2="-11.993"/>
		<line class="st4" x1="21" y1="-10.993" x2="-3" y2="-10.993"/>
		<line class="st4" x1="21" y1="-9.993" x2="-3" y2="-9.993"/>
		<line class="st4" x1="21" y1="-8.993" x2="-3" y2="-8.993"/>
		<line class="st4" x1="21" y1="-7.993" x2="-3" y2="-7.993"/>
		<line class="st4" x1="21" y1="-6.993" x2="-3" y2="-6.993"/>
		<line class="st4" x1="21" y1="-5.993" x2="-3" y2="-5.993"/>
		<line class="st4" x1="21" y1="-4.993" x2="-3" y2="-4.993"/>
		<line class="st4" x1="21" y1="-3.993" x2="-3" y2="-3.993"/>
		<line class="st4" x1="21" y1="-2.993" x2="-3" y2="-2.993"/>
		<rect x="-3" y="-25.993" class="st5" width="24" height="24"/>
	</g>
	<line class="st6" x1="-3" y1="-25.993" x2="21" y2="-1.993"/>
	<line class="st6" x1="21" y1="-25.993" x2="-3" y2="-1.993"/>
	<line class="st6" x1="-3" y1="-13.993" x2="21" y2="-13.993"/>
	<line class="st6" x1="-3" y1="-19.993" x2="21" y2="-19.993"/>
	<line class="st6" x1="-3" y1="-8.993" x2="21" y2="-8.993"/>
	<circle class="st6" cx="9" cy="-13.993" r="10"/>
	<line class="st6" x1="15" y1="-25.993" x2="15" y2="-1.993"/>
	<line class="st6" x1="3" y1="-25.993" x2="3" y2="-1.993"/>
	<line class="st6" x1="9" y1="-25.993" x2="9" y2="-1.993"/>
</g>
</svg>
